<?xml version="1.0" encoding="UTF-8"?>
<svg version="1.1" xmlns="http://www.w3.org/2000/svg" width="256" height="256">
<path d="M0 0 C84.48 0 168.96 0 256 0 C256 84.48 256 168.96 256 256 C171.52 256 87.04 256 0 256 C0 171.52 0 87.04 0 0 Z " fill="#000000" transform="translate(0,0)"/>
<path d="M0 0 C2.8125 1.5625 2.8125 1.5625 5 4 C5.62791197 9.63770424 4.4953963 12.59862275 1.375 17.25 C-1.19106818 21.18066297 -3.67342386 25.09990244 -5.875 29.25 C-9.67589885 36.3491995 -13.80369187 43.25885607 -17.91943359 50.17871094 C-18.84675667 51.74170916 -19.76243693 53.31160478 -20.67578125 54.8828125 C-22 57 -22 57 -24 59 C-27.375 59.4375 -27.375 59.4375 -31 59 C-33.868479 56.49927472 -34.89482061 54.99937865 -35.29443359 51.20239258 C-34.94194045 47.3685181 -33.7967491 45.20025242 -31.8515625 41.88671875 C-31.52322418 41.31906799 -31.19488586 40.75141724 -30.8565979 40.16656494 C-29.79179515 38.33263897 -28.70904339 36.51010696 -27.625 34.6875 C-26.88795737 33.42907535 -26.1519588 32.17003864 -25.41699219 30.91040039 C-23.96004278 28.41743967 -22.49605477 25.92882992 -21.02636719 23.44335938 C-19.27667928 20.47015476 -17.55472014 17.48437037 -15.8515625 14.484375 C-14.98451121 12.96867207 -14.11733627 11.45303987 -13.25 9.9375 C-12.86924316 9.26098389 -12.48848633 8.58446777 -12.09619141 7.88745117 C-9.10361395 2.73597181 -6.36269125 -1.08631314 0 0 Z " fill="#C4F252" transform="translate(211,77)"/>
<path d="M0 0 C3.02245069 0.08792584 4.0062956 0.29784214 6.625 2 C8.57251968 5.08357283 8.45071558 6.76131768 8.125 10.375 C6.8046875 13.19921875 6.8046875 13.19921875 5 16.0625 C2.64804329 19.84131044 0.41649319 23.63532686 -1.703125 27.55078125 C-4.86525215 33.38767729 -8.14938621 39.144511 -11.5 44.875 C-12.05945313 45.84953125 -12.61890625 46.8240625 -13.1953125 47.828125 C-13.741875 48.76140625 -14.2884375 49.6946875 -14.8515625 50.65625 C-15.33705566 51.49220703 -15.82254883 52.32816406 -16.32275391 53.18945312 C-17.9829864 55.52704377 -19.40680583 56.92193587 -21.875 58.375 C-25.29835626 58.25488224 -27.82916069 57.98226153 -30.8125 56.25 C-32.54526166 53.1921853 -32.18800329 50.8493365 -31.875 47.375 C-30.65883304 44.41370266 -29.00612108 41.77293803 -27.3125 39.0625 C-26.31128576 37.4017731 -25.31136191 35.74026779 -24.3125 34.078125 C-23.7659375 33.17771484 -23.219375 32.27730469 -22.65625 31.34960938 C-20.68834634 28.06329658 -18.77487565 24.74775386 -16.875 21.421875 C-16.53791519 20.83247635 -16.20083038 20.2430777 -15.85353088 19.63581848 C-14.50448127 17.27596617 -13.15626196 14.9156457 -11.81027222 12.55404663 C-10.86486161 10.89755897 -9.91494309 9.24364659 -8.96484375 7.58984375 C-8.14294556 6.15306274 -8.14294556 6.15306274 -7.30444336 4.68725586 C-5.0146218 0.98325928 -4.50668913 0.43613121 0 0 Z " fill="#C3F153" transform="translate(71.875,110.625)"/>
<path d="M0 0 C2.2012572 2.52736937 2.05346849 4.5144849 1.9753418 7.77709961 C1.49888695 11.35313776 -0.19969894 14.17712247 -2.0625 17.1875 C-2.45791992 17.85789307 -2.85333984 18.52828613 -3.26074219 19.21899414 C-4.59406489 21.46929647 -5.95265497 23.70313715 -7.3125 25.9375 C-8.34503582 27.65938586 -9.37624493 29.38206785 -10.40625 31.10546875 C-11.95184575 33.68970484 -13.50003857 36.27200985 -15.06152344 38.84667969 C-17.9006869 43.53158541 -20.60038795 48.24825632 -23.12792969 53.10961914 C-24.3125 54.9375 -24.3125 54.9375 -27.3125 56.9375 C-30.8897533 57.39417063 -32.64708305 57.37527431 -35.6875 55.375 C-38.05064073 51.83028891 -37.98469334 50.17231805 -37.3125 45.9375 C-35.59285377 42.09774197 -33.49064236 38.53292677 -31.3125 34.9375 C-30.80976562 34.09832031 -30.30703125 33.25914063 -29.7890625 32.39453125 C-28.79789716 30.74521115 -27.80305141 29.09809766 -26.8046875 27.453125 C-25.28695681 24.89443766 -23.85289577 22.30406948 -22.4375 19.6875 C-21.94765625 18.78644531 -21.4578125 17.88539062 -20.953125 16.95703125 C-20.07757227 15.34559729 -19.20285719 13.73369787 -18.33398438 12.11865234 C-17.29614698 10.19787137 -16.24313878 8.28604482 -15.1875 6.375 C-14.86281738 5.76688477 -14.53813477 5.15876953 -14.20361328 4.53222656 C-10.45987806 -2.17949784 -6.86898007 -3.15601787 0 0 Z " fill="#C3EF58" transform="translate(131.3125,79.0625)"/>
<path d="M0 0 C1.87890625 0.3359375 1.87890625 0.3359375 3.94140625 1.7734375 C5.62847155 6.38474931 4.81917032 11.15932718 2.89038086 15.62426758 C1.60353197 17.97521703 0.23676337 20.25072453 -1.18359375 22.5234375 C-2.18924445 24.19244187 -3.19444947 25.86171486 -4.19921875 27.53125 C-4.94461914 28.75183105 -4.94461914 28.75183105 -5.70507812 29.99707031 C-7.68100268 33.2607526 -9.55940875 36.57570148 -11.43359375 39.8984375 C-12.06394531 40.99800781 -12.69429687 42.09757812 -13.34375 43.23046875 C-14.50747729 45.26379445 -15.66152628 47.30269732 -16.8046875 49.34765625 C-17.32160156 50.25128906 -17.83851563 51.15492188 -18.37109375 52.0859375 C-18.809375 52.86453125 -19.24765625 53.643125 -19.69921875 54.4453125 C-21.34676037 56.63599971 -22.54694683 57.43058164 -25.12109375 58.3359375 C-28.74609375 58.1484375 -28.74609375 58.1484375 -32.12109375 57.3359375 C-34.63767017 53.56107287 -34.90115912 50.69934201 -34.12109375 46.3359375 C-32.5977542 42.69202763 -30.61576545 39.38877813 -28.55859375 36.0234375 C-28.00864746 35.09354004 -27.45870117 34.16364258 -26.89208984 33.20556641 C-23.58985867 27.65256558 -20.18431244 22.17026653 -16.64453125 16.765625 C-14.3880081 13.16675988 -12.43183356 9.41961443 -10.48046875 5.6484375 C-7.60675646 0.75982348 -5.57458303 -0.26692294 0 0 Z " fill="#C5F253" transform="translate(157.12109375,110.6640625)"/>
<path d="M0 0 C2 1.3125 2 1.3125 4 3 C4 3.99 4 4.98 4 6 C4.99 6.33 5.98 6.66 7 7 C7 8.65 7 10.3 7 12 C6.34 12 5.68 12 5 12 C4.67 13.32 4.34 14.64 4 16 C3.34 16 2.68 16 2 16 C1.34 15.01 0.68 14.02 0 13 C-0.33 14.32 -0.66 15.64 -1 17 C-0.01 17.33 0.98 17.66 2 18 C1.67 19.65 1.34 21.3 1 23 C0.34 23 -0.32 23 -1 23 C-1.0825 23.680625 -1.165 24.36125 -1.25 25.0625 C-2.52266837 30.04711779 -5.028941 34.62459985 -9 38 C-9.66 37.67 -10.32 37.34 -11 37 C-10.67 38.65 -10.34 40.3 -10 42 C-11.6875 43.625 -11.6875 43.625 -14 45 C-16.75 44.1875 -16.75 44.1875 -19 43 C-18.21302675 39.58978257 -17.12880057 36.31114834 -16 33 C-15.34 33 -14.68 33 -14 33 C-13.34 31.02 -12.68 29.04 -12 27 C-12.99 27.99 -13.98 28.98 -15 30 C-15.99 29.67 -16.98 29.34 -18 29 C-16.45454854 23.52067211 -13.84456788 18.88570819 -11 14 C-10.67 14.66 -10.34 15.32 -10 16 C-9.34 16 -8.68 16 -8 16 C-7.34 16.66 -6.68 17.32 -6 18 C-5.67 16.02 -5.34 14.04 -5 12 C-4.34 12 -3.68 12 -3 12 C-3.20625 10.9275 -3.4125 9.855 -3.625 8.75 C-3.98693582 5.13064181 -4.08882678 3.85839454 -2 1 C-1.34 0.67 -0.68 0.34 0 0 Z " fill="#C4F64A" transform="translate(119,86)"/>
<path d="M0 0 C0 0.66 0 1.32 0 2 C0.99 2.33 1.98 2.66 3 3 C2.67 5.31 2.34 7.62 2 10 C1.34 10 0.68 10 0 10 C-0.66 12.31 -1.32 14.62 -2 17 C-3.32 17.33 -4.64 17.66 -6 18 C-6 19.32 -6 20.64 -6 22 C-8.76276177 21.47731534 -11.3260876 20.89130413 -14 20 C-13.74503693 17.39337756 -13.47179707 14.79094478 -13.1875 12.1875 C-13.11724609 11.44951172 -13.04699219 10.71152344 -12.97460938 9.95117188 C-12.36057225 4.52308369 -12.36057225 4.52308369 -10.61328125 1.98828125 C-9 1 -9 1 -6 1 C-6 1.66 -6 2.32 -6 3 C-5.38125 2.505 -4.7625 2.01 -4.125 1.5 C-2 0 -2 0 0 0 Z " fill="#C4F54C" transform="translate(57,145)"/>
<path d="M0 0 C0.33 0 0.66 0 1 0 C1 1.65 1 3.3 1 5 C1.99 5.33 2.98 5.66 4 6 C5.74302657 11.47808349 4.65363772 14.3098387 2.0625 19.4375 C1.05874324 21.30096642 0.04328606 23.1583733 -1 25 C-1.66 25 -2.32 25 -3 25 C-3.66 23.35 -4.32 21.7 -5 20 C-4.67 19.67 -4.34 19.34 -4 19 C-4.33 19 -4.66 19 -5 19 C-5 17.35 -5 15.7 -5 14 C-4.34 14 -3.68 14 -3 14 C-3 12.35 -3 10.7 -3 9 C-4.65 9.33 -6.3 9.66 -8 10 C-8 9.34 -8 8.68 -8 8 C-6.35 7.67 -4.7 7.34 -3 7 C-2.690625 6.030625 -2.38125 5.06125 -2.0625 4.0625 C-1 1 -1 1 0 0 Z " fill="#C6F553" transform="translate(65,122)"/>
<path d="M0 0 C1 3 1 3 -0.73046875 6.46875 C-1.53874491 7.81898397 -2.35827004 9.16253232 -3.1875 10.5 C-3.78788086 11.51513672 -3.78788086 11.51513672 -4.40039062 12.55078125 C-8.36313278 19.06329428 -8.36313278 19.06329428 -12 21 C-15.42335626 20.87988224 -17.95416069 20.60726153 -20.9375 18.875 C-22.68877659 15.78451189 -22.40700562 13.4886196 -22 10 C-20.86376782 7.46684169 -19.52695778 5.3381541 -18 3 C-16.84162427 6.47512718 -17.22734057 8.13670286 -17.9375 11.6875 C-18.13214844 12.68136719 -18.32679687 13.67523438 -18.52734375 14.69921875 C-18.68332031 15.45847656 -18.83929688 16.21773437 -19 17 C-17.8553125 17.2165625 -17.8553125 17.2165625 -16.6875 17.4375 C-14 18 -14 18 -11 19 C-11 17.68 -11 16.36 -11 15 C-10.01 14.67 -9.02 14.34 -8 14 C-6.28432339 10.49705129 -6.28432339 10.49705129 -5 7 C-4.34 7 -3.68 7 -3 7 C-2.87625 6.21625 -2.7525 5.4325 -2.625 4.625 C-2 2 -2 2 0 0 Z " fill="#C4E76B" transform="translate(62,148)"/>
<path d="M0 0 C0.33 0.99 0.66 1.98 1 3 C1.99 3.33 2.98 3.66 4 4 C3.34 6.31 2.68 8.62 2 11 C1.34 11 0.68 11 0 11 C-0.33 12.32 -0.66 13.64 -1 15 C-1.99 15 -2.98 15 -4 15 C-4.33 14.01 -4.66 13.02 -5 12 C-7.00016466 10.79117904 -7.00016466 10.79117904 -9 10 C-8.67 8.35 -8.34 6.7 -8 5 C-7.01 5.33 -6.02 5.66 -5 6 C-4.67 6 -4.34 6 -4 6 C-3.67 5.34 -3.34 4.68 -3 4 C-2.34 4 -1.68 4 -1 4 C-0.67 2.68 -0.34 1.36 0 0 Z " fill="#C5F64B" transform="translate(205,90)"/>
<path d="M0 0 C3 0 3 0 4.73828125 1.65234375 C6.39171594 4.72885845 5.96962052 6.20075391 5.1875 9.5625 C4.52644674 12.51520457 4 14.96599985 4 18 C0 18 0 18 -2.25 16.125 C-4 14 -4 14 -4 12 C-3.01 11.67 -2.02 11.34 -1 11 C0.02281518 8.90280128 0.02281518 8.90280128 0.6875 6.4375 C0.93886719 5.61121094 1.19023437 4.78492187 1.44921875 3.93359375 C1.63097656 3.29550781 1.81273437 2.65742187 2 2 C1.01 2.33 0.02 2.66 -1 3 C-0.67 2.01 -0.34 1.02 0 0 Z " fill="#C4F649" transform="translate(151,113)"/>
<path d="M0 0 C3.32351429 -0.3798302 4.84843876 -0.08420069 7.8125 1.5625 C10 4 10 4 10.3125 7.75 C10.1578125 9.35875 10.1578125 9.35875 10 11 C9.34 9.68 8.68 8.36 8 7 C7.319375 7.99 7.319375 7.99 6.625 9 C6.08875 9.66 5.5525 10.32 5 11 C4.34 11 3.68 11 3 11 C2.87625 10.030625 2.7525 9.06125 2.625 8.0625 C2.41875 7.051875 2.2125 6.04125 2 5 C1.34 4.67 0.68 4.34 0 4 C0.33 3.34 0.66 2.68 1 2 C0.67 1.67 0.34 1.34 0 1 C0 0.67 0 0.34 0 0 Z " fill="#BEE559" transform="translate(206,77)"/>
<path d="M0 0 C2.5 1 2.5 1 5 3 C6.53409799 10.03128247 3.38801511 14.58904806 -0.17578125 20.55859375 C-2 23 -2 23 -5 24 C-5 22.35 -5 20.7 -5 19 C-4.34 19 -3.68 19 -3 19 C-3 17.02 -3 15.04 -3 13 C-2.34 12.67 -1.68 12.34 -1 12 C-1 12.66 -1 13.32 -1 14 C1.19117773 13.17798016 1.19117773 13.17798016 1.8515625 10.93359375 C2.10679687 10.10988281 2.36203125 9.28617188 2.625 8.4375 C2.88539063 7.61121094 3.14578125 6.78492187 3.4140625 5.93359375 C3.60742188 5.29550781 3.80078125 4.65742187 4 4 C2.68 3.67 1.36 3.34 0 3 C0 2.01 0 1.02 0 0 Z " fill="#C5EA61" transform="translate(128,78)"/>
<path d="M0 0 C0.33 0 0.66 0 1 0 C1 3.3 1 6.6 1 10 C1.99 10 2.98 10 4 10 C4 10.66 4 11.32 4 12 C7.07373463 11.37128155 9.33257408 10.87574371 11.2890625 8.30859375 C12.26200476 6.57619657 13.13804683 4.79021043 14 3 C14.33 3 14.66 3 15 3 C15.37325636 6.26599313 15.09290174 7.82968014 13.5 10.75 C10.57522897 13.38229392 8.76656522 13.95703342 4.90625 14.1875 C3 14 3 14 0.5 12.5625 C-1.68662899 8.82700881 -1.34681871 6.30055199 -1 2 C-0.67 1.34 -0.34 0.68 0 0 Z " fill="#BFE167" transform="translate(124,155)"/>
<path d="M0 0 C0.66 1.32 1.32 2.64 2 4 C1.01 4.495 1.01 4.495 0 5 C0 5.66 0 6.32 0 7 C-0.66 7 -1.32 7 -2 7 C-2.12375 7.928125 -2.2475 8.85625 -2.375 9.8125 C-3 13 -3 13 -5 16 C-4.67 17.32 -4.34 18.64 -4 20 C0.455 20.99 0.455 20.99 5 22 C3 24 3 24 0.125 24.375 C-3 24 -3 24 -5.375 22.4375 C-7.73814073 18.89278891 -7.67219334 17.23481805 -7 13 C-5.22689331 9.19071442 -3.15677993 5.60259917 -1 2 C-0.67 1.34 -0.34 0.68 0 0 Z " fill="#C0E162" transform="translate(101,112)"/>
<path d="M0 0 C0.66 0 1.32 0 2 0 C2 0.66 2 1.32 2 2 C2.66 2 3.32 2 4 2 C4 2.66 4 3.32 4 4 C5.32 4.33 6.64 4.66 8 5 C7.67 6.65 7.34 8.3 7 10 C5.35 10 3.7 10 2 10 C2 8.35 2 6.7 2 5 C1.01 5.99 0.02 6.98 -1 8 C-1.66 7.67 -2.32 7.34 -3 7 C-1.125 1.125 -1.125 1.125 0 0 Z " fill="#C4F649" transform="translate(71,112)"/>
<path d="M0 0 C3.02245069 0.08792584 4.0062956 0.29784214 6.625 2 C8.55704232 5.05906701 8.65479878 6.8177796 8.125 10.375 C6.625 12.25 6.625 12.25 5.125 13.375 C5.455 11.065 5.785 8.755 6.125 6.375 C5.135 6.045 4.145 5.715 3.125 5.375 C3.125 4.715 3.125 4.055 3.125 3.375 C2.465 3.375 1.805 3.375 1.125 3.375 C1.125 2.715 1.125 2.055 1.125 1.375 C-1.32724694 1.48113836 -1.32724694 1.48113836 -3.875 2.375 C-5.10790201 4.83204762 -5.10790201 4.83204762 -5.875 7.375 C-6.865 7.87 -6.865 7.87 -7.875 8.375 C-5.48771676 0.53106936 -5.48771676 0.53106936 0 0 Z " fill="#C4E66B" transform="translate(71.875,110.625)"/>
<path d="M0 0 C3.73487777 0.4979837 5.81237635 0.87491756 9 3 C8.67 4.65 8.34 6.3 8 8 C6.35 8 4.7 8 3 8 C3 7.34 3 6.68 3 6 C2.01 6 1.02 6 0 6 C0 4.02 0 2.04 0 0 Z " fill="#C5F749" transform="translate(125,159)"/>
<path d="M0 0 C0.66 0.33 1.32 0.66 2 1 C1.25 8.625 1.25 8.625 -1 12 C-2.65 12 -4.3 12 -6 12 C-4.02 8.04 -2.04 4.08 0 0 Z " fill="#BFE859" transform="translate(63,118)"/>
<path d="M0 0 C1.22602512 3.67807537 0.70295577 5.88243927 0.0625 9.6875 C-0.13214844 10.86699219 -0.32679687 12.04648438 -0.52734375 13.26171875 C-0.68332031 14.16535156 -0.83929688 15.06898438 -1 16 C-1.99 15.34 -2.98 14.68 -4 14 C-4.82336802 8.00117585 -3.17309028 4.85879449 0 0 Z " fill="#BBDD60" transform="translate(44,151)"/>
<path d="M0 0 C-0.33 1.32 -0.66 2.64 -1 4 C-1.8353125 3.2575 -1.8353125 3.2575 -2.6875 2.5 C-5.42758164 0.72264975 -6.79373024 0.67115182 -10 1 C-10.99 1.33 -11.98 1.66 -13 2 C-13.66 1.34 -14.32 0.68 -15 0 C-13.00458132 -0.68025637 -11.00382009 -1.34490497 -9 -2 C-8.319375 -2.268125 -7.63875 -2.53625 -6.9375 -2.8125 C-3.9899691 -3.09774493 -2.35817546 -1.63762185 0 0 Z " fill="#0A1602" transform="translate(216,77)"/>
<path d="M0 0 C2.0625 0.4375 2.0625 0.4375 4 1 C4.33 2.32 4.66 3.64 5 5 C4.01 5.33 3.02 5.66 2 6 C2 7.65 2 9.3 2 11 C1.01 11 0.02 11 -1 11 C-1.02688151 9.35425434 -1.04634123 7.70838587 -1.0625 6.0625 C-1.07410156 5.14597656 -1.08570313 4.22945313 -1.09765625 3.28515625 C-1 1 -1 1 0 0 Z " fill="#19210B" transform="translate(162,112)"/>
<path d="M0 0 C0.87840996 3.09720845 0.99435406 4.90645403 0 8 C-0.66 8 -1.32 8 -2 8 C-1.67 8.99 -1.34 9.98 -1 11 C-2.65 12.32 -4.3 13.64 -6 15 C-6.37815631 10.62756771 -5.34305827 8.34852855 -3 4.6875 C-2.1646875 3.36298828 -2.1646875 3.36298828 -1.3125 2.01171875 C-0.879375 1.34785156 -0.44625 0.68398437 0 0 Z " fill="#121F04" transform="translate(151,139)"/>
<path d="M0 0 C0.33 0 0.66 0 1 0 C1 1.65 1 3.3 1 5 C2.65 5.33 4.3 5.66 6 6 C6 6.99 6 7.98 6 9 C7.65 9.33 9.3 9.66 11 10 C11 10.33 11 10.66 11 11 C7.75 11.3125 7.75 11.3125 4 11 C0.8809965 8.28086874 0.06235971 6.82626618 -0.25 2.6875 C-0.1675 1.800625 -0.085 0.91375 0 0 Z " fill="#B6D75A" transform="translate(176,125)"/>
<path d="M0 0 C0.99 0.66 1.98 1.32 3 2 C2.23997083 3.31878578 1.46656347 4.6298684 0.6875 5.9375 C0.25824219 6.66839844 -0.17101562 7.39929688 -0.61328125 8.15234375 C-2 10 -2 10 -5 11 C-5 8.69 -5 6.38 -5 4 C-3.35 4 -1.7 4 0 4 C0 2.68 0 1.36 0 0 Z " fill="#C2E864" transform="translate(191,124)"/>
<path d="M0 0 C0.66 0.99 1.32 1.98 2 3 C-0.31 6.63 -2.62 10.26 -5 14 C-6.43088528 11.13822943 -5.59991697 9.06624227 -5 6 C-4.34 6 -3.68 6 -3 6 C-2.67 4.68 -2.34 3.36 -2 2 C-1.34 2 -0.68 2 0 2 C0 1.34 0 0.68 0 0 Z " fill="#C2E65E" transform="translate(213,87)"/>
<path d="M0 0 C0.66 0.33 1.32 0.66 2 1 C1.21362959 4.10712212 0.36075884 7.09244107 -1 10 C-3.6875 11.5625 -3.6875 11.5625 -6 12 C-4.43358249 7.69235185 -2.31663844 3.93828536 0 0 Z " fill="#141F05" transform="translate(117,115)"/>
<path d="M0 0 C1.63191925 3.26383851 0.88171297 5.53192899 0 9 C-1.84511261 11.06037574 -3.71201657 12.39354355 -6 14 C-6.66 13.67 -7.32 13.34 -8 13 C-5.36 8.71 -2.72 4.42 0 0 Z " fill="#121F04" transform="translate(206,104)"/>
<path d="M0 0 C0.33 0 0.66 0 1 0 C1 2.31 1 4.62 1 7 C0.34 7 -0.32 7 -1 7 C-1.33 8.65 -1.66 10.3 -2 12 C-2.99 11.67 -3.98 11.34 -5 11 C-4.32902328 6.80639551 -2.1441606 3.59665648 0 0 Z " fill="#C4ED5D" transform="translate(107,102)"/>
<path d="M0 0 C1.74805953 3.49611906 -0.05249965 7.34535578 -1 11 C-2.65 11 -4.3 11 -6 11 C-5.18993474 9.35296694 -4.3768779 7.70740494 -3.5625 6.0625 C-3.11003906 5.14597656 -2.65757812 4.22945313 -2.19140625 3.28515625 C-1 1 -1 1 0 0 Z " fill="#C3E961" transform="translate(196,91)"/>
<path d="M0 0 C0.33 0 0.66 0 1 0 C1.10000385 3.50013461 0.73880926 6.58300716 0 10 C0 10.66 0 11.32 0 12 C-1.65 11.67 -3.3 11.34 -5 11 C-1.85714286 3.57142857 -1.85714286 3.57142857 0 0 Z " fill="#0C1702" transform="translate(143,153)"/>
<path d="M0 0 C0.99 0.66 1.98 1.32 3 2 C2.67 2.33 2.34 2.66 2 3 C2.33 3.99 2.66 4.98 3 6 C2.67 6.99 2.34 7.98 2 9 C1.34 9 0.68 9 0 9 C0 8.34 0 7.68 0 7 C-0.66 7 -1.32 7 -2 7 C-2.33 7.66 -2.66 8.32 -3 9 C-2.44271087 5.65626525 -1.64826111 2.96687001 0 0 Z " fill="#C6EE5C" transform="translate(51,139)"/>
<path d="M0 0 C0.99 0.33 1.98 0.66 3 1 C3 1.66 3 2.32 3 3 C2.34 3 1.68 3 1 3 C1.33 4.65 1.66 6.3 2 8 C1.01 8.495 1.01 8.495 0 9 C-0.99 8.67 -1.98 8.34 -3 8 C-2.37240135 5.07120629 -1.41377341 2.63904371 0 0 Z " fill="#C7F557" transform="translate(107,120)"/>
<path d="M0 0 C0.66 0 1.32 0 2 0 C0.23570801 4.97209562 -2.3939166 9.43438061 -5 14 C-5.5534764 11.92446352 -6 10.15634036 -6 8 C-5 7 -4 6 -3 5 C-2.484375 4.113125 -1.96875 3.22625 -1.4375 2.3125 C-0.7259375 1.1678125 -0.7259375 1.1678125 0 0 Z " fill="#142102" transform="translate(59,122)"/>
<path d="M0 0 C0.99 0 1.98 0 3 0 C3.33 1.32 3.66 2.64 4 4 C2.03533587 5.06775224 0.03144641 6.06553465 -2 7 C-2.66 6.67 -3.32 6.34 -4 6 C-2.1875 3 -2.1875 3 0 0 Z " fill="#0B1207" transform="translate(122,107)"/>
<path d="M0 0 C1.19298271 3.96516557 0.73961634 6.18941183 -1 10 C-3.125 11.375 -3.125 11.375 -5 12 C-5 8.55639368 -4.20408468 7.25204608 -2.5 4.3125 C-2.0359375 3.50425781 -1.571875 2.69601563 -1.09375 1.86328125 C-0.7328125 1.24839844 -0.371875 0.63351563 0 0 Z " fill="#192406" transform="translate(213,91)"/>
<path d="M0 0 C0.99 0.33 1.98 0.66 3 1 C1.02 4.63 -0.96 8.26 -3 12 C-3.33 12 -3.66 12 -4 12 C-4 10.35 -4 8.7 -4 7 C-3.34 6.67 -2.68 6.34 -2 6 C-1.27306096 4.02111039 -0.60183749 2.02045442 0 0 Z " fill="#BEE263" transform="translate(147,141)"/>
<path d="M0 0 C0.66 0.66 1.32 1.32 2 2 C0.35 4.97 -1.3 7.94 -3 11 C-3.66 10.67 -4.32 10.34 -5 10 C-4.38545304 6.00544473 -2.29353263 3.25533664 0 0 Z " fill="#0E1B03" transform="translate(129,143)"/>
<path d="M0 0 C1.125 1.75 1.125 1.75 2 4 C1.125 6.25 1.125 6.25 0 8 C-0.66 8 -1.32 8 -2 8 C-2.66 6.35 -3.32 4.7 -4 3 C-2.68 2.01 -1.36 1.02 0 0 Z " fill="#C4F643" transform="translate(64,139)"/>
<path d="M0 0 C0.99 0 1.98 0 3 0 C3 1.65 3 3.3 3 5 C2.34 5 1.68 5 1 5 C0.67 6.32 0.34 7.64 0 9 C-0.66 9 -1.32 9 -2 9 C-1.34 6.03 -0.68 3.06 0 0 Z " fill="#C4F643" transform="translate(123,93)"/>
<path d="M0 0 C1 3 1 3 -0.1875 6.5625 C-1.94478806 9.8952877 -2.50915788 10.91663521 -6 12 C-4.43358249 7.69235185 -2.31663844 3.93828536 0 0 Z " fill="#182606" transform="translate(158,127)"/>
<path d="M0 0 C0.66 0 1.32 0 2 0 C1.39009109 3.55780196 0.4216319 6.6828589 -1 10 C-1.66 10 -2.32 10 -3 10 C-3 8.35 -3 6.7 -3 5 C-2.34 5 -1.68 5 -1 5 C-1 4.34 -1 3.68 -1 3 C-0.34 3 0.32 3 1 3 C0.67 2.01 0.34 1.02 0 0 Z " fill="#C7F44B" transform="translate(130,82)"/>
<path d="M0 0 C1.125 3.75 1.125 3.75 0 6 C-0.66 6 -1.32 6 -2 6 C-1.49396008 3.83125748 -1.00016187 2.00032373 0 0 Z M-3 6 C-2.67 6.66 -2.34 7.32 -2 8 C-3.32 9.32 -4.64 10.64 -6 12 C-4.125 7.125 -4.125 7.125 -3 6 Z " fill="#182806" transform="translate(74,130)"/>
<path d="M0 0 C0.99 0.33 1.98 0.66 3 1 C2.401875 1.7425 1.80375 2.485 1.1875 3.25 C-0.58173222 5.47417764 -2.30860915 7.71662235 -4 10 C-4.41176754 6.39703406 -4.1535853 5.21597933 -2 2.1875 C-1.34 1.465625 -0.68 0.74375 0 0 Z " fill="#182704" transform="translate(148,111)"/>
<path d="M0 0 C2.475 0.495 2.475 0.495 5 1 C4.67 2.32 4.34 3.64 4 5 C3.01 5 2.02 5 1 5 C0.67 3.35 0.34 1.7 0 0 Z " fill="#020010" transform="translate(121,170)"/>
<path d="M0 0 C0.33 0 0.66 0 1 0 C1.20086443 3.71599191 1.1519437 4.77208445 -1 8 C-1.66 8 -2.32 8 -3 8 C-2.25 2.25 -2.25 2.25 0 0 Z " fill="#C7F942" transform="translate(69,130)"/>
<path d="M0 0 C3.3 0.33 6.6 0.66 10 1 C8 3 8 3 5 3.3125 C4.01 3.209375 3.02 3.10625 2 3 C1.34 2.01 0.68 1.02 0 0 Z " fill="#B7D563" transform="translate(96,133)"/>
<path d="M0 0 C-0.66 2.97 -1.32 5.94 -2 9 C-2.33 9 -2.66 9 -3 9 C-3.66 6.69 -4.32 4.38 -5 2 C-2 0 -2 0 0 0 Z " fill="#C6F655" transform="translate(153,115)"/>
<path d="M0 0 C0.33 0.66 0.66 1.32 1 2 C1.66 2.33 2.32 2.66 3 3 C2.67 5.64 2.34 8.28 2 11 C-0.30694043 7.53958935 -0.62056512 5.09789669 -1 1 C-0.67 0.67 -0.34 0.34 0 0 Z " fill="#BDEB4D" transform="translate(108,100)"/>
<path d="M0 0 C0.93065133 2.60582371 1.14917407 3.64198224 0.0625 6.25 C-0.4634375 7.11625 -0.4634375 7.11625 -1 8 C-1.99 7.67 -2.98 7.34 -4 7 C-2.68 4.69 -1.36 2.38 0 0 Z " fill="#BDE058" transform="translate(141,126)"/>
<path d="M0 0 C0.66 0.33 1.32 0.66 2 1 C0.68 3.31 -0.64 5.62 -2 8 C-2.99 7.01 -3.98 6.02 -5 5 C-4.01 4.67 -3.02 4.34 -2 4 C-2 3.34 -2 2.68 -2 2 C-1.34 2 -0.68 2 0 2 C0 1.34 0 0.68 0 0 Z " fill="#C5E760" transform="translate(153,133)"/>
<path d="M0 0 C0.66 0 1.32 0 2 0 C1.30058404 3.14737182 0.23921302 6.02588876 -1 9 C-1.33 9 -1.66 9 -2 9 C-2.125 5.625 -2.125 5.625 -2 2 C-1.34 1.34 -0.68 0.68 0 0 Z " fill="#071204" transform="translate(161,123)"/>
<path d="M0 0 C1.37562854 1.28965176 2.70766393 2.62689293 4 4 C4 4.66 4 5.32 4 6 C3.01 6.33 2.02 6.66 1 7 C0 6 0 6 -0.0625 2.9375 C-0.041875 1.968125 -0.02125 0.99875 0 0 Z " fill="#000012" transform="translate(218,82)"/>
<path d="M0 0 C1 3 1 3 -0.3125 5.6875 C-0.869375 6.450625 -1.42625 7.21375 -2 8 C-2.66 8 -3.32 8 -4 8 C-2.87548273 5.0280615 -1.77706209 2.66559313 0 0 Z " fill="#1B2A06" transform="translate(195,123)"/>
<path d="M0 0 C2.5 1.0625 2.5 1.0625 5 3 C5.3125 6.6875 5.3125 6.6875 5 10 C4.67 10 4.34 10 4 10 C4 8.02 4 6.04 4 4 C2.68 3.67 1.36 3.34 0 3 C0 2.01 0 1.02 0 0 Z " fill="#CEF072" transform="translate(128,78)"/>
<path d="M0 0 C1.98 0 3.96 0 6 0 C4.35 1.65 2.7 3.3 1 5 C0.34 4.34 -0.32 3.68 -1 3 C-0.67 2.01 -0.34 1.02 0 0 Z " fill="#080E08" transform="translate(121,74)"/>
</svg>
